# xmcd
#
# Track frame offsets:
#	150
#	13464
#	25309
#	38660
#	49178
#	64614
#	76625
#	89492
#	100413
#	110452
#	120704
#	137572
#	147113
#	155593
#	171936
#	182624
#	190262
#	199286
#	209104
#	219299
#
# Disc length: 3053 seconds
#
# Revision: 0
# Processed by: cddbd v1.5.2PL0 Copyright (c) Steve Scherf et al.
# Submitted via: EasyCDDAExtractor 12.0.1.1
#
DISCID=210beb14
DTITLE=Various Artist - The Ultimate Ballroom Album 10 CD1
DYEAR=0
DGENRE=Dance
TTITLE0=Julie London - SF 29 - You And The Night And The Music
TTITLE1=Bobby Darin - SF 29 - It Had To Be You
TTITLE2=Dinah Shore - SF 29 - It's All Right With Me
TTITLE3=Toney Bennet& Count Bassie Orch - SF 29 - Chicago
TTITLE4=Count Basie and Orch. - SF 29 - Secrete Love
TTITLE5=Natalie Cole - SF 29 - Don't Get Around Much Anymore
TTITLE6=Sammy Davis Jr. - SF 29 - Bye Bye Blackbird
TTITLE7=Rosemary Clooney - SF 29 - It Could Happen To You
TTITLE8=Andy Williams - SF 29 - Strangers In The Night
TTITLE9=Julie London - SF 29 - Making Whoopee
TTITLE10=Tony Burgos and Swing Orch - QS 50 - Lullaby Of Broadway
TTITLE11=Mel Thorme' - QS 50 - The Rumba Jumps
TTITLE12=Rosemary Clooney - QS 50 - Too Marvelous For Words
TTITLE13=The Billy May Orch - QS 50 - Rhythe Is Our Business
TTITLE14=Duke Ellington Orch - QS 50 - Let's Get Together
TTITLE15=Andy Williams - QS 50 - When You're Smiling
TTITLE16=Buddy Greco - QS 50 - People Will Say We're In Love
TTITLE17=LJulie London - QS 50 - Let There Be Love
TTITLE18=Dean Martin - QS 50 - Powder Your Face With Sunshine
TTITLE19=Peggy Lee - QS 48 - So In Love
EXTD=YEAR: 0\n
EXTT0=
EXTT1=
EXTT2=
EXTT3=
EXTT4=
EXTT5=
EXTT6=
EXTT7=
EXTT8=
EXTT9=
EXTT10=
EXTT11=
EXTT12=
EXTT13=
EXTT14=
EXTT15=
EXTT16=
EXTT17=
EXTT18=
EXTT19=
PLAYORDER=
